<svg viewBox="0 0 178 57" width="112" height="48" fill="#7D829C" xmlns="http://www.w3.org/2000/svg"><path d="M110.228.863c1.998-.1 4.059-.005 6.164.353 1.592.27 3.052 1.112 4.747 1.265 1.153.103 2.559-.256 3.8-.315 19.672-.96 36.05 4.319 53.033 6.965.193.764-.657 1.497-1.101 2.058l-2.198 2.776c-3.15 3.962-6.617 8.126-10.626 10.997.357 1.863.17 4.337-.479 5.7l.785.992c1.044 1.322 2.053 2.672 2.697 4.393-1.056 5.615-3.512 9.976-7.435 12.824-3.437 2.49-7.955 3.624-13.086 4.808l-1.8.414c-11.358 2.617-30.047 5.203-38.473-1.584-9.124 5.353-27.563 6.06-36.095-.315-6.068 7.676-29.998 7.003-26.438-8.233l-.915.688c-4.395 3.28-10.501 7.477-16.345 9.919-7.259 3.028-21.009 2.69-19.633-7.6.165-1.224.684-1.917 1.268-3.007l-.68-1.196c-1.632-2.897-2.779-5.144-3.856-7.774l-.214-.531C2.118 31.37.238 27.856.02 23.538-.438 14.36 6.716 8.54 13.798 5.808 17.414 4.41 20.351 2.39 23.93 1.372c5.35-1.524 9.94 1.42 10.291 6.334l.994-.292c6.025-1.76 13.231-3.529 21.013-2.4 6.54-5.085 19.312-1.941 27.706.475 1.898.547 4.456 1.962 5.86 1.902 1.192-.05 3.34-1.665 4.587-2.218 4.418-1.958 9.854-4.01 15.847-4.31zm1.042 6.244v-.002c-7.683.155-14.865 3.984-20.526 7.09-6.036 3.312-11.424 7.201-15.203 11.082 1.366-2.328 2.818-4.628 4.436-6.804 1.64-2.21 3.467-4.208 4.91-6.176l-4.063-1.069c-1.81-.47-3.622-.92-5.441-1.308l-2.515-.54c-4.134-.869-8.957-1.654-12.05.065-1.084.602-1.97 2.084-3.007 2.217-.857.112-2.271-.511-3.327-.629-3.64-.405-7.006-.114-10.304.509l-2.291.452c-3.53.714-8.657 1.95-9.41 4.576-.57 1.982.696 3.9.474 5.86-.207 1.836-1.895 4.234-2.868 5.787l-.14.226c-1.15 1.885-2.32 3.556-4.275 4.432-1.027-5.112-.197-9.73.697-14.128l.41-2.015c.621-3.082 1.873-6.237.795-9.341-3.018-.42-5.559 1.97-8.549 3.164l-2.637 1.049c-4.788 1.94-9.356 4.249-10.027 9.716-.43 3.51.822 5.791 1.789 8.266l.11.287c2.095 5.56 4.684 10.265 7.758 14.563-.839 1.54-2.813 1.942-3.012 4.113.893 1.265 2.758 1.428 4.596 1.428 5.312-.012 9.667-2.687 13.613-4.91 8.592-4.833 14.363-12.276 20.424-19.315 1.064-1.237 1.94-2.727 3.326-3.479 1.33 6.112-1.168 9.441-3.04 14.372l-.397 1.08c-.893 2.475-2.636 7.723-1.633 10.35 1.221 3.22 11.644 3.36 14.408 1.27 1.392-1.05 1.95-3.431 2.697-4.91l.692-1.382a103.218 103.218 0 001.837-3.842c.043 6.935 5.196 8.972 10.766 10.45 11.84 3.13 23.777-2.462 30.234-6.33-.807 5.137 1.194 5.651 5.23 6.49 9.572 1.975 19.203.05 27.282-1.86l3.932-.944c6.95-1.69 12.369-3.369 13.433-10.5-1.245-1.077-4.362-.944-6.494-.63-6.277.919-12.357 4.094-20.738 3.482-1.529-.112-4.83-.645-5.068-1.58-.368-1.463 2.248-2.486 4.439-2.852 6.282-1.063 15.363.011 20.418-1.902 2.43-.916 5.357-3.561 5.062-6.49-.192-1.978-2.77-3.012-5.22-3.162-6.928-.434-11.88 3.607-19.153 2.213.91-1.15 1.073-3.04 2.215-3.957 5.317-.111 10.482.947 15.514.634 6.997-.437 10.943-3.385 14.252-7.283.353-.42 1.241-.874.95-1.584-12.153-1.848-28.72-6.746-43.7-4.91-1.94.234-3.332 2.26-4.606 3.057l.012-.029a.04.04 0 000-.02c.243-1.081.701-1.941.793-3.164-2.634-.928-5.25-1.285-7.81-1.233zM98.813 20.686c-.779 3.551-2.408 7.618-3.323 11.556 5.033.071 10.341-.952 15.516-1.263.7-.936 1.043-2.227 1.426-3.483 1.036 1.47 1.768 4.216.793 6.33-7.86-.109-13.51 6.324-21.217 6.334-3.453.004-6.385-1.984-4.75-5.86 2.308-5.468 8.03-9.287 11.555-13.614zm18.369-5.856c1.48 1.687 4.719 1.615 6.646 2.852-2.601.668-5.877.665-8.234 1.58.555-1.452 1.055-2.959 1.588-4.432z"></path></svg>